<svg width="98" height="73" viewBox="0 0 98 73" fill="none" xmlns="http://www.w3.org/2000/svg">
<path fill-rule="evenodd" clip-rule="evenodd" d="M55.1766 22.74C56.4635 20.3566 56.8505 17.6015 55.9547 14.5086C53.1832 4.94115 45.7668 1.07078 36.9751 0.548219C24.1378 -0.214376 8.3397 6.26873 0.487983 12.0636C0.115798 12.3376 0.0358652 12.8645 0.307121 13.2384C0.578384 13.6143 1.09988 13.6971 1.47206 13.4231C9.09248 7.79815 24.4195 1.48928 36.8784 2.22851C44.9509 2.70858 51.8101 6.19444 54.3544 14.9823C55.1135 17.5973 54.7792 19.9211 53.6963 21.9392C52.38 21.2445 51.0615 20.5966 49.7431 19.9976C46.1032 18.3449 35.9974 15.8745 28.5662 16.7964C23.2357 17.4592 19.2845 19.8617 19.4233 25.1127C19.5011 28.0314 21.3011 30.1428 24.1651 31.4344C28.1014 33.2123 34.1322 33.412 39.9106 32.1608C44.7217 31.12 49.3499 29.0808 52.4556 26.1876C53.1369 25.5503 53.7489 24.8748 54.2746 24.1589C72.3499 34.1427 89.2519 52.6893 96.3803 71.7351C96.5443 72.1684 97.0237 72.3893 97.4548 72.2236C97.8858 72.0601 98.1024 71.5736 97.9405 71.1403C90.6944 51.7844 73.5463 32.9299 55.1766 22.74ZM52.7795 23.3538C51.541 22.7038 50.3003 22.0963 49.0597 21.5334C45.5712 19.9509 35.8901 17.5844 28.7701 18.4681C24.4006 19.0098 20.9752 20.7645 21.0887 25.0681C21.1497 27.3283 22.6279 28.8959 24.8443 29.8986C27.2835 30.9989 30.5869 31.4195 34.109 31.2432C39.4564 30.9755 45.3062 29.3251 49.4466 26.4531C50.7587 25.544 51.8963 24.5094 52.7795 23.3538Z" fill="#A95347"/>
</svg>
