<svg width="87" height="100" viewBox="0 0 87 100" fill="none" xmlns="http://www.w3.org/2000/svg">
<path fill-rule="evenodd" clip-rule="evenodd" d="M55.3739 47.3811C53.6138 44.9528 51.796 43.2881 50.3162 42.0971C36.1199 30.7634 20.3083 38.0175 8.61993 48.7831C5.48661 51.6659 1.65812 57.1446 0.648566 62.4006C-0.0623571 66.0935 0.587963 69.6735 3.62861 72.2853C6.93274 75.1449 11.8706 75.6418 17.0926 74.803C24.6465 73.5958 32.7978 69.6255 37.0916 66.637C42.0433 63.1884 49.1064 57.0454 55.2035 50.1631C56.8957 52.9317 58.4525 56.5265 59.4514 61.2575C59.9029 63.3586 59.8687 65.8592 59.4724 68.4884C55.4319 68.2364 51.1611 68.7721 46.8263 70.1947C43.1842 71.3956 36.0118 75.3513 31.7147 80.079C28.65 83.4561 27.0741 87.2317 28.746 90.7319C30.8287 95.0755 34.5202 96.1894 38.5402 95.5585C44.201 94.673 50.5215 90.1909 53.3314 86.9883C56.5987 83.2604 59.587 76.6276 60.8416 70.3208C74.4498 71.8908 84.9696 82.9358 85.1591 98.3924C85.1696 98.8521 85.5539 99.2264 86.0161 99.23C86.4862 99.2202 86.8645 98.8292 86.854 98.3695C86.6502 82.0157 75.5341 70.3068 61.1364 68.6286C61.5515 65.8293 61.5905 63.1502 61.1099 60.9048C60.0062 55.6941 58.2582 51.7858 56.3679 48.8264C57.488 47.5177 58.568 46.1849 59.5905 44.8361C64.1862 38.7812 67.5167 32.5157 67.8152 27.2709C68.5067 15.1509 60.4854 6.884 50.1148 3.07382C39.8419 -0.696204 27.2974 -0.0719271 18.8755 5.40553C18.4831 5.66115 18.3691 6.19161 18.626 6.58063C18.883 6.96973 19.4073 7.08296 19.7996 6.82727C27.8139 1.61449 39.7598 1.06858 49.5293 4.66524C59.2012 8.22183 66.7661 15.8719 66.1254 27.1698C65.8325 32.164 62.6068 38.0567 58.2394 43.8125C57.33 45.0112 56.3725 46.1993 55.3739 47.3811ZM59.1763 70.18C55.393 69.9727 51.4049 70.4774 47.351 71.8135C43.884 72.9557 37.0675 76.7066 32.9661 81.2245C30.4237 84.0245 28.8845 87.0965 30.2777 89.9951C31.9692 93.5432 35.0062 94.3935 38.281 93.8803C43.5503 93.0697 49.4378 88.8553 52.0591 85.8666C55.1305 82.3665 57.9735 76.1187 59.1763 70.18ZM54.2367 48.6978C52.511 46.2537 50.7114 44.5999 49.2572 43.4241C35.7987 32.6756 20.8482 39.8267 9.76823 50.0302C6.84863 52.714 3.25981 57.8098 2.31242 62.722C1.72412 65.7989 2.19509 68.8185 4.73484 71.0045C7.69468 73.5681 12.1438 73.8824 16.8204 73.1353C24.1104 71.9702 31.9829 68.1238 36.1244 65.2438C41.0763 61.7954 48.1685 55.6155 54.2367 48.6978Z" fill="#A95347"/>
</svg>
