<svg width="140" height="140" viewBox="0 0 140 140" fill="none" xmlns="http://www.w3.org/2000/svg">
<rect width="140" height="140" rx="70" fill="url(#paint0_linear_2_477)"/>
<path d="M116.213 103.869C116.213 105.158 115.993 106.435 115.567 107.626C115.14 108.817 114.515 109.9 113.726 110.812C112.938 111.723 112.002 112.447 110.972 112.94C109.942 113.434 108.837 113.688 107.722 113.688H31.2788C29.0269 113.688 26.8673 112.653 25.2749 110.812C23.6826 108.97 22.7881 106.473 22.7881 103.869V49.8498C22.791 47.2479 23.6868 44.7538 25.2788 42.9151C26.8708 41.0765 29.0288 40.0438 31.2788 40.0438H46.5266C47.5992 40.0438 48.5902 39.4712 49.1258 38.5419L55.8852 26.8144C56.4208 25.8851 57.4118 25.3125 58.4843 25.3125H80.4894C81.5619 25.3125 82.5529 25.8851 83.0885 26.8144L89.8479 38.5419C90.3835 39.4712 91.3745 40.0438 92.4471 40.0438H107.695C108.812 40.0396 109.919 40.2905 110.953 40.7821C111.986 41.2736 112.925 41.9962 113.717 42.9084C114.508 43.8205 115.136 44.9044 115.564 46.0977C115.993 47.291 116.213 48.5704 116.213 49.8625V103.869Z" stroke="white" stroke-width="3" stroke-linecap="round" stroke-linejoin="round"/>
<path d="M88.4375 73.5085C88.4375 77.254 87.3268 80.9154 85.246 84.0296C83.1651 87.1439 80.2074 89.5712 76.7471 91.0045C73.2867 92.4378 69.479 92.8129 65.8055 92.0822C62.132 91.3515 58.7576 89.5478 56.1092 86.8994C53.4607 84.2509 51.6571 80.8766 50.9264 77.2031C50.1957 73.5295 50.5707 69.7218 52.004 66.2615C53.4374 62.8011 55.8646 59.8435 58.9789 57.7626C62.0932 55.6817 65.7545 54.571 69.5 54.571C74.5225 54.571 79.3394 56.5662 82.8908 60.1177C86.4423 63.6692 88.4375 68.486 88.4375 73.5085V73.5085Z" stroke="white" stroke-width="3" stroke-linecap="round" stroke-linejoin="round"/>
<defs>
<linearGradient id="paint0_linear_2_477" x1="-19.25" y1="-16.5789" x2="190.331" y2="65.2739" gradientUnits="userSpaceOnUse">
<stop stop-color="#FC46AA"/>
<stop offset="0.526871" stop-color="#FD6F95"/>
<stop offset="1" stop-color="#FE9383"/>
</linearGradient>
</defs>
</svg>
