<svg width="23" height="24" viewBox="0 0 23 24" fill="none" xmlns="http://www.w3.org/2000/svg">
<path d="M18.7072 17.793C18.3167 17.4025 17.6835 17.4025 17.293 17.793C16.9024 18.1835 16.9024 18.8167 17.293 19.2072L18.7072 17.793ZM21.2928 23.2071C21.6834 23.5977 22.3165 23.5977 22.7071 23.2071C23.0976 22.8166 23.0976 22.1835 22.7071 21.7929L21.2928 23.2071ZM8.37423 5.54924C8.91971 5.46285 9.29188 4.9506 9.20548 4.40512C9.11908 3.85963 8.60684 3.48747 8.06136 3.57387L8.37423 5.54924ZM3.07384 8.56139C2.98744 9.10687 3.3596 9.61911 3.90509 9.70551C4.45057 9.79191 4.96282 9.41974 5.04921 8.87426L3.07384 8.56139ZM17.293 19.2072L21.2928 23.2071L22.7071 21.7929L18.7072 17.793L17.293 19.2072ZM10 18.5C5.58172 18.5 2 14.9183 2 10.5H0C0 16.0228 4.47715 20.5 10 20.5V18.5ZM18 10.5C18 14.9183 14.4183 18.5 10 18.5V20.5C15.5228 20.5 20 16.0228 20 10.5H18ZM10 2.5C14.4183 2.5 18 6.08172 18 10.5H20C20 4.97715 15.5228 0.5 10 0.5V2.5ZM10 0.5C4.47715 0.5 0 4.97715 0 10.5H2C2 6.08172 5.58172 2.5 10 2.5V0.5ZM8.06136 3.57387C5.494 3.98049 3.48046 5.99403 3.07384 8.56139L5.04921 8.87426C5.3203 7.16269 6.66266 5.82033 8.37423 5.54924L8.06136 3.57387Z" fill="#D46858"/>
</svg>
